<?xml version="1.0" encoding="UTF-8" standalone="no"?>
<svg width="1021px" height="684px" viewBox="0 0 1021 684" version="1.1" xmlns="http://www.w3.org/2000/svg" xmlns:xlink="http://www.w3.org/1999/xlink">
    <!-- Generator: Sketch 3.6.1 (26313) - http://www.bohemiancoding.com/sketch -->
    <title>Page 1</title>
    <desc>Created with Sketch.</desc>
    <defs></defs>
    <g id="Home" stroke="none" stroke-width="1" fill="none" fill-rule="evenodd">
        <g id="1024" transform="translate(-2.000000, 0.000000)" fill="#FFFFFF">
            <g id="Page-1" transform="translate(2.000000, 0.000000)">
                <path d="M634.210049,367.565883 C629.089482,365.015162 623.498502,366.063192 619.966544,370.08578 C616.257218,374.223958 616.002732,379.857122 619.295627,384.796735 L620.251877,385.968064 C620.94593,386.669319 621.863622,387.971651 621.747946,391.208215 C621.632271,394.175066 621.442608,394.204522 621.118717,396.709006 L620.568057,399.384394 C618.879195,411.128499 617.683882,423.304146 616.997541,435.572266 C616.318912,447.79415 616.318912,460.039152 616.989829,471.505837 C616.989829,479.196531 620.580813,479.740792 625.770785,480.149216 L629.103535,479.676942 L631.152683,478.296449 C635.486656,478.296449 637.973358,478.171618 639.870435,470.604223 C640.849821,465.333246 642.399872,459.438075 644.543724,450.059745 C646.787828,440.249872 648.445843,430.879248 649.456075,420.82278 C650.520289,410.3733 650.327497,400.810023 648.908544,391.6937 C647.235106,381.082393 642.631223,373.399405 635.21257,368.166959 L634.210049,367.565883 Z" id="Fill-4"></path>
                <path d="M792.990812,433.630327 C791.780076,429.831217 790.654168,426.556122 789.559107,423.627802 C787.507796,418.518654 785.479619,413.67922 783.436019,409.109499 C781.215051,404.092824 778.546803,399.53081 775.508394,395.539047 C772.230923,391.262158 768.097453,387.640288 763.239084,384.804442 C758.442408,382.007125 754.291677,380.148798 747.189204,378.954352 C740.125289,377.960264 731.335792,380.47361 724.796273,386.576846 C719.721976,391.292983 715.665623,395.523635 712.565521,399.399806 C708.709672,404.647664 704.88467,410.858785 701.183056,417.902166 C700.913146,418.433887 700.635525,418.934784 700.357904,419.435681 C699.347672,412.700544 697.998125,405.587809 696.332398,398.274714 C694.550996,390.445311 692.20664,383.240102 689.353312,376.844034 C685.913895,369.107104 681.086373,363.759067 675.240906,361.077342 C670.158897,358.526621 664.567917,359.559239 660.974266,363.597239 C657.288075,367.743124 655.696149,372.414435 658.981332,377.33093 L661.051383,379.394755 L663.589149,381.226954 C667.306187,384.008858 668.030469,386.838853 668.871044,391.986532 C669.973817,398.767905 670.606176,406.065587 670.775833,413.648395 C670.937779,421.886222 671.562426,429.854336 672.603506,437.321552 C673.883647,446.522642 677.716361,453.689321 684.009106,458.590404 L684.6646,459.060476 C687.57191,460.894529 690.702859,461.811556 693.972619,461.811556 C695.88512,461.811556 697.836179,461.480193 699.756392,460.840587 L701.036534,460.409045 L702.093036,459.569079 C709.133816,454.020683 715.303174,446.938772 720.423741,438.523705 C724.904237,431.156667 729.369309,424.583359 733.703283,418.988727 C737.312358,414.303414 741.075666,411.190148 744.885244,409.718281 C745.224559,409.579571 745.587009,409.533335 746.018864,409.533335 C747.152483,409.533335 750.45309,410.049644 756.576178,415.104849 C758.596642,416.676895 760.138982,418.66507 761.288025,421.184967 C762.884346,424.714363 764.411262,428.374763 765.853349,432.227816 C767.465094,436.527823 769.254208,440.658296 771.166709,444.441994 C773.426236,448.973184 776.472357,452.964947 780.220242,456.293984 L781.515807,457.211011 C786.921707,460.316572 793.044794,459.384133 797.101147,454.960828 C799.345251,452.487168 800.417177,449.458669 800.108709,446.445581 C799.877358,444.364933 798.897972,441.374964 795.558808,438.716357 C794.587134,437.606678 793.700288,435.872804 792.990812,433.630327 Z" id="Fill-6"></path>
                <path d="M888.20097,374.750285 C876.965027,375.112472 865.821624,376.807816 855.094653,379.797785 C849.827564,381.261945 845.123428,382.895639 840.9514,384.752811 C840.573527,382.271445 840.141672,380.090617 839.6327,378.210327 C839.200845,376.653694 838.838395,374.950644 838.553062,373.062648 C838.445099,372.315156 838.314,371.089885 838.229171,369.117122 C840.180231,368.030561 842.069596,366.90547 843.866422,365.75726 C846.565516,364.007974 849.341727,362.343455 852.542081,360.53252 C877.767043,344.665649 897.778898,325.176907 912.014691,302.61343 C926.204214,280.150132 935.496809,255.53683 939.637991,229.443956 C943.763749,203.51291 943.162236,176.294945 937.841165,148.506728 C932.550941,120.903457 922.957589,93.6084305 909.176786,67.0763085 C899.683687,50.6854216 891.008028,40.4902438 882.656259,35.912817 C873.008926,30.6495468 863.608367,30.888436 855.904381,36.4214199 C849.326304,41.1375566 843.889557,48.7666013 839.27025,59.7092714 C835.121357,69.5422623 831.550841,80.3616348 828.643531,91.8052017 C825.759357,103.133177 823.438136,114.484271 821.741562,125.534826 C820.075836,136.385023 818.734,145.146866 817.692921,152.097773 C815.348565,172.842609 813.320389,194.304114 811.654662,216.004508 C810.983744,227.047357 810.397655,237.997733 809.904107,248.871049 C809.387423,259.667303 808.816758,270.371083 808.14584,281.121101 C807.482634,295.01521 807.135608,308.932436 807.135608,322.487476 C807.135608,332.990899 807.336112,343.717798 807.73712,354.490934 C804.166604,354.645056 800.950826,356.533052 798.737569,359.738792 C793.687129,366.179563 797.071843,374.480572 797.071843,374.480572 C800.781169,379.697605 804.92235,380.799578 807.752543,380.799578 L808.832181,380.761048 C808.824469,384.914639 808.69337,388.721455 808.415749,392.112142 C807.922201,398.184553 807.351535,403.910189 806.696041,409.304463 C806.0097,414.914508 805.485304,420.801973 805.14599,426.80503 C804.798963,432.862029 804.583036,441.931421 805.639538,457.506155 C806.69604,473.080888 811.178,476.18011 813.045777,477.341778 C814.701089,478.371304 814.809821,478.597709 820.637707,479.00374 C826.465593,479.409771 831.878467,475.848824 831.878467,475.848824 C835.749739,472.381077 836.663697,467.431619 838.221459,461.289853 C845.748076,462.222291 854.770762,461.112612 865.011896,457.883754 C874.921427,454.747369 884.946633,450.539835 894.817606,445.353626 C904.665443,440.167417 913.950327,434.30307 922.394636,427.930121 C931.00089,421.433874 937.925994,415.037806 942.969444,408.919158 L943.917983,407.462704 C944.881945,405.543884 945.444899,404.12596 945.753367,402.869865 C946.894698,398.315557 944.118487,394.585802 943.493839,393.77666 C938.766569,386.509803 930.877503,381.292769 920.042568,378.279682 C910.333541,375.590251 899.745381,374.357274 888.20097,374.750285 Z M845.593842,154.979856 C846.920254,144.915682 848.100144,135.090398 849.102664,125.52712 C850.074338,116.395385 851.624389,107.394654 853.706548,98.7715213 C855.727012,90.3333356 858.588052,82.0646841 862.204838,74.1967502 C864.587753,69.010541 867.610738,63.9861601 871.258371,59.169844 C881.352982,70.5902927 889.820426,83.1589511 896.514179,96.6523422 C904.472651,112.711867 910.05592,129.757772 913.086617,147.273751 C916.117314,164.874496 916.849925,182.960726 915.253604,201.03925 C913.641859,219.117774 909.678047,236.780169 903.446995,253.540949 C897.254502,270.224667 888.524861,286.045303 877.512557,300.5559 C866.561947,314.997142 853.266981,327.627449 838.051802,338.084634 L837.581389,338.415997 C837.003011,308.169532 837.265209,277.776651 838.383405,248.007965 C839.547871,217.137305 841.969344,185.811985 845.593842,154.979856 M840.635221,438.356482 C840.650644,437.655226 840.650644,436.953971 840.650644,436.245009 C840.650644,429.340338 840.573527,423.082981 840.396158,417.519172 C840.303618,414.652501 840.473275,413.11128 840.596662,412.348375 C842.17756,411.138517 846.025697,408.911452 854.955843,406.14496 C863.639214,403.470941 872.816134,401.636888 882.216693,400.696743 C891.632675,399.756599 900.593667,399.756599 908.845183,400.696743 C911.551989,400.997282 913.641859,401.444236 915.245892,401.945133 C913.163734,403.717537 910.402946,405.844422 906.770737,408.418261 C899.190138,413.712356 890.900064,418.759855 882.085594,423.398931 C873.240277,428.053419 864.556906,431.945002 856.259119,434.981208 C846.912542,438.395013 842.94873,438.672432 840.635221,438.356482" id="Fill-8"></path>
                <path d="M1019.79337,369.486245 L1019.49262,367.343947 C1017.27165,359.668666 1011.65753,358.281567 1009.30546,358.034972 L1008.21812,357.988735 C1005.98943,357.988735 1000.49099,358.751639 997.414027,365.941436 L996.820226,368.299504 C996.488623,371.944492 995.902534,377.739484 995.085094,385.676773 C994.267655,393.45994 993.033783,401.566763 991.422038,409.750647 C989.856564,417.772703 987.782117,425.178271 985.283527,431.736167 C984.574051,433.60875 983.903133,435.057498 983.309333,436.174884 C978.728584,431.104266 975.875256,425.378629 974.61825,418.789909 C972.682614,408.594731 971.186544,398.792565 970.199447,389.660829 L970.006655,388.612799 C968.526009,382.679098 964.07636,378.987873 958.40055,378.987873 L959.002063,379.026404 C952.585931,379.481064 949.85599,384.289674 949.85599,390.993986 L949.85599,391.995779 C949.85599,406.14419 949.524387,419.2831 951.961283,431.050323 C954.621819,443.981169 961.223032,455.987281 973.099045,466.737299 L973.731405,467.669738 L974.834177,468.193753 C976.206859,468.73318 977.062858,469.141604 977.71064,469.457554 C979.106458,470.143398 980.66422,470.482466 982.430199,470.482466 C983.417296,470.482466 984.604898,470.382287 986.02385,470.104867 L987.257722,469.750386 C997.059289,466.08228 1004.50108,459.57062 1009.38258,450.400355 C1013.76283,442.193352 1016.80895,432.97685 1018.45154,422.989737 C1020.01701,413.380223 1020.64937,403.439346 1020.28692,393.467646 C1019.96303,384.073903 1019.79337,376.090377 1019.79337,369.486245" id="Fill-10"></path>
                <path d="M617.285958,505.178437 C611.895482,498.427888 606.111709,491.785225 600.104297,485.427688 C594.844919,479.894704 590.503234,473.575697 587.133222,466.547729 C582.004943,456.260077 577.609276,445.37135 574.092742,434.174378 C570.807559,423.778842 567.900249,412.920939 565.417082,401.824147 C577.254538,381.857627 588.922336,360.742897 600.112008,339.027091 C611.949464,316.032072 621.396293,292.343503 628.19801,268.608697 C635.038286,244.673533 638.423721,220.222059 638.246352,195.917002 C638.068983,171.180402 631.984453,146.49004 620.162421,122.48552 C618.5661,119.318311 616.969779,115.812033 615.381169,111.95898 C613.453245,107.381553 611.085754,103.420615 608.355813,100.214875 C604.900972,95.3137917 600.744368,91.106258 595.98625,87.6693348 C591.991591,84.8026635 592.963739,84.6793679 589.115603,81.4736279 L582.405951,77.404802 C580.177271,76.4107143 577.879185,75.8866992 575.588811,75.8866992 C572.504132,75.8866992 567.853979,76.8576685 563.219248,81.4736258 C556.271009,90.158407 550.27902,98.1881691 544.82685,106.017573 C542.582746,109.231019 540.685669,113.531026 539.050789,119.06401 C538.264196,114.309342 537.338792,109.577793 536.197461,104.877069 C531.261975,84.6716597 521.329309,65.2291549 506.723354,47.1352187 C496.975769,34.913335 483.565127,24.8183366 466.846167,17.1584675 C450.535927,9.71436935 433.038086,4.71310673 414.853904,2.27797733 C396.592605,-0.134033763 378.038261,0.297508157 359.668998,3.58030919 C340.929573,6.93246518 324.372559,13.7061321 310.506927,23.6393024 C289.477129,38.5506169 271.046172,54.5716107 255.738453,71.2245052 C240.361329,87.9467546 227.097209,106.564706 216.339392,126.546638 C205.604709,146.474628 196.636005,168.961044 189.687766,193.358575 C182.778085,217.594277 177.071429,245.189842 172.71432,275.343833 C170.022937,293.43777 168.156707,309.867187 167.146474,324.200544 C166.120819,338.63408 165.789216,352.343242 166.120819,364.950431 C166.452422,377.511383 167.30842,390.180221 168.67339,402.587051 C169.668199,411.726493 170.878936,421.536365 172.274753,431.862547 C153.365671,428.826341 134.842174,424.233502 117.074424,418.176503 C96.1294538,411.040649 75.6548974,401.670025 56.2291319,390.342049 C42.7413733,382.319993 36.4207878,375.292011 24.6064675,364.950417 C12.3834273,354.23893 -9.34686793,372.962646 6.16002687,386.158516 L38.8363973,410.817846 C80.1430226,435.90554 81.068509,434.459504 105.691958,442.381381 C128.071304,449.571178 151.561134,454.664914 175.606206,457.539291 L180.71135,491.600278 C180.973548,493.434331 181.228034,495.106556 181.497943,496.647778 L178.775714,498.643659 C174.171831,502.24241 172.375005,507.390089 173.963615,512.514649 C175.629341,517.985984 180.472287,521.253373 186.880708,521.253373 C191.422898,531.009303 192.627424,537.464642 198.099721,550.686731 C203.572017,563.90882 206.679718,569.751117 213.804482,584.639275 C226.13876,610.413418 238.433404,632.945669 257.296216,648.28082 C275.997082,663.461848 296.918917,673.82656 319.491055,679.074418 C331.752654,681.917971 344.384414,683.359013 357.062444,683.359013 C367.596623,683.359013 378.385287,682.364925 389.189375,680.407575 C412.918268,676.061331 434.888893,667.638557 454.476605,655.331907 C474.156856,642.971313 490.922086,626.665193 504.317304,606.860502 C517.874468,586.793802 525.640147,563.297886 527.398414,537.035478 C528.508899,520.297816 524.683897,505.502093 516.015949,493.079851 C507.224614,480.480368 494.191846,472.196304 477.418904,468.474255 C463.175399,465.075862 448.901047,462.502023 435.027704,460.814386 C407.743719,457.477642 377.891739,457.685707 349.990818,459.866535 C357.918443,456.27549 365.792086,452.669032 373.565476,449.008632 C397.43318,437.850191 421.455117,426.391212 444.991217,414.963057 L447.081087,413.468072 C451.029476,409.530252 452.078267,404.320925 449.903568,399.543139 C447.512942,394.295281 442.014502,391.837034 435.968531,393.547789 C416.851233,402.841353 398.867555,411.472191 380.953282,419.841022 C396.623451,410.770935 411.499316,400.406223 425.295542,388.95495 C442.50805,374.6293 458.232201,358.315474 471.997581,340.475839 C485.832366,322.566849 498.487261,303.085814 507.355713,282.67234 C515.113681,265.533961 520.049167,247.285903 529.711924,228.467592 C529.711924,235.449324 528.06162,240.242522 528.084756,242.415644 C527.398414,251.978921 526.658092,263.168186 526.989694,275.682902 C527.321297,287.912492 527.722306,301.1747 528.732538,315.053396 C529.727347,328.831913 531.038336,343.180682 532.87372,357.714398 C534.531734,370.753128 536.46737,383.668562 538.811726,396.167865 C536.158903,398.209983 534.169285,399.180952 531.986874,399.75891 C528.47034,400.675937 524.930671,401.908914 521.522101,403.427017 L519.170033,405.037593 C514.458186,409.769142 514.56615,416.51969 515.059699,418.95482 C515.900274,423.177766 519.385961,429.612364 526.665803,429.612364 L529.873869,426.984582 C533.120494,425.50501 536.444235,423.324182 539.713995,422.437979 C541.048119,422.06038 542.374531,421.15106 543.616114,420.673281 C546.045299,430.31362 548.713546,439.221878 551.597721,447.721712 C555.576956,459.488936 560.257957,469.791999 565.571316,478.654021 C570.491379,486.699195 576.097783,494.112469 582.259429,500.809075 C587.996932,507.043314 593.742146,513.493325 599.325415,520.051221 L602.155608,522.124163 C604.199208,523.018071 606.188826,523.457319 608.078192,523.457319 C611.078042,523.457319 613.877388,522.316816 615.97497,520.220755 C619.229306,516.953366 620.170133,512.345115 618.589235,507.567329 L617.285958,505.178437 Z M555.931695,244.195754 C556.263297,232.867779 556.587189,220.85396 556.926503,208.177416 C557.250395,195.824529 558.237492,183.309813 559.86466,170.964632 C561.45327,158.812103 564.052112,146.883051 567.591781,135.508839 C570.074947,127.479077 573.444959,119.911681 577.601564,112.922243 C587.117798,122.539463 594.420776,133.150771 599.363974,144.540395 C605.463926,158.604038 608.957325,173.684887 609.743918,189.359106 C610.545935,205.356981 609.242658,222.056112 605.88807,238.971015 C602.471788,256.171042 597.690535,273.47125 591.6677,290.393858 C585.614017,307.385821 578.71976,324.231368 571.185432,340.475839 C567.321871,348.767609 563.481446,356.843608 559.687291,364.611362 C557.620556,348.266712 556.36355,331.829588 555.931695,315.523469 C555.260777,290.948698 555.260777,266.95959 555.931695,244.195754 L555.931695,244.195754 Z M498.919116,536.534581 C497.986001,551.307185 493.844819,565.52495 486.595824,578.802571 C479.192595,592.326786 469.599243,604.633437 458.077967,615.35263 C446.518133,626.110354 433.184608,635.18044 418.455266,642.308588 C403.756771,649.405911 388.541593,653.312907 373.26472,655.362731 C367.935937,656.071693 362.545461,655.694093 357.255237,655.694093 C347.469093,655.694093 337.582697,655.200903 327.881382,652.781186 C313.15204,649.105373 299.417507,642.123641 287.11735,631.373624 C269.804589,615.992237 255.021265,597.736472 243.176098,576.768159 C232.364299,557.664723 223.434153,536.865943 216.547607,514.664653 C223.889143,512.422176 231.09958,509.933104 238.047819,507.1512 C247.016523,503.560154 256.054633,500.00764 265.192994,496.432007 C290.780406,490.945259 317.362626,487.431275 344.18391,485.974821 C371.259679,484.495249 396.623451,484.580016 419.511769,486.21371 C428.287681,486.876435 437.919591,488.024645 448.145301,489.650634 C457.900598,491.199561 467.008113,493.850461 475.182512,497.564804 C482.886498,501.047964 488.947892,505.818043 493.706009,512.144756 C498.009136,517.893511 499.759691,526.054277 498.919116,536.534581 Z M272.048693,466.825148 L256.686992,473.059388 C247.09364,475.055269 237.623676,477.220685 228.539297,479.493986 C221.83012,481.166211 215.113232,483.200623 208.504307,485.574104 C207.548057,481.197036 206.630365,476.819968 205.728096,472.450606 C204.895233,468.36637 204.131775,464.158836 203.437722,459.905065 C220.449726,460.906859 237.037587,460.745031 253.054782,459.465817 C272.064116,457.947715 289.993813,455.104162 306.504557,450.981395 C311.663682,449.58659 316.791961,448.053075 321.897104,446.373144 C305.509748,453.401112 288.837058,460.236428 272.048693,466.825148 L272.048693,466.825148 Z M286.631513,429.16541 C258.329583,435.068287 229.248773,436.987107 199.805513,434.806279 C197.360904,414.177034 196.127033,393.077717 196.127033,371.993811 C196.127033,348.667429 197.291499,325.464345 199.597297,303.024165 C201.879959,280.599398 205.373358,258.868179 209.954106,238.416175 C214.542566,217.971876 220.010159,198.853028 226.194941,181.606764 C232.001849,165.48559 239.790663,149.287356 249.306898,133.451309 C258.853979,117.630674 269.835436,102.811833 281.965936,89.4109147 C294.011607,76.0716457 307.453095,64.2813039 321.889393,54.3327215 C336.094339,44.5613794 351.263248,37.5488232 366.987399,33.449175 C382.603586,29.3803511 399.037213,28.4325001 415.825578,30.6287403 C432.451997,32.8095682 449.664506,39.498468 466.738203,50.3409587 C481.482969,60.4667816 492.356462,73.1818561 499.07335,88.1471134 C505.983031,103.482264 509.877438,120.443402 510.671743,138.545045 C511.473759,156.962637 509.592105,176.289551 505.111609,195.994063 C500.530861,216.037644 494.430908,235.580328 486.950562,254.082688 C479.454792,272.646696 471.033619,289.877549 461.941528,305.297466 C452.872572,320.678853 443.880733,333.501813 435.289902,343.357923 C417.876889,363.016198 396.924208,380.34723 373.025658,394.880945 C345.872771,411.341187 316.807384,422.89264 286.631513,429.16541 L286.631513,429.16541 Z" id="Fill-1"></path>
            </g>
        </g>
    </g>
</svg>