<?xml version="1.0" encoding="UTF-8" standalone="no"?>
<svg width="78px" height="125px" viewBox="0 0 78 125" version="1.1" xmlns="http://www.w3.org/2000/svg" xmlns:xlink="http://www.w3.org/1999/xlink">
    <!-- Generator: Sketch 3.6.1 (26313) - http://www.bohemiancoding.com/sketch -->
    <title>mouse_icon</title>
    <desc>Created with Sketch.</desc>
    <defs></defs>
    <g id="Home" stroke="none" stroke-width="1" fill="none" fill-rule="evenodd">
        <g id="128" transform="translate(-25.000000, -1.000000)" fill="#FFFFFF">
            <g id="mouse" transform="translate(25.000000, 1.000000)">
                <path d="M39,0 C17.459,0 0,15.7382812 0,35.15625 L0,89.84375 C0,109.261719 17.459,125 39,125 C60.541,125 78,109.261719 78,89.84375 L78,35.15625 C78,15.7382812 60.541,0 39,0 L39,0 Z M69.3333333,89.84375 C69.3333333,104.945312 55.7526667,117.1875 39,117.1875 C22.2473333,117.1875 8.66666667,104.945312 8.66666667,89.84375 L8.66666667,35.15625 C8.66666667,20.0546875 22.2473333,7.8125 39,7.8125 C55.7526667,7.8125 69.3333333,20.0546875 69.3333333,35.15625 L69.3333333,89.84375 L69.3333333,89.84375 Z" id="Shape"></path>
                <ellipse id="Oval-13" cx="39" cy="39.0625" rx="5.2" ry="5.20833333"></ellipse>
            </g>
        </g>
    </g>
</svg>